# xmcd
#
# Track frame offsets:
#	150
#	23714
#	45608
#	72951
#	130383
#	160708
#	234523
#	273852
#
# Disc length: 4008 seconds
#
# Revision: 0
# Processed by: cddbd v1.5.2PL0 Copyright (c) Steve Scherf et al.
# Submitted via: audiograbber 1.83.01
#
DISCID=630fa608
DTITLE=Mark Knopfler - Live in Zagreb 2013
DYEAR=2013
DGENRE=Folk-Rock
TTITLE0=Gator Blood
TTITLE1=Prairie Wedding
TTITLE2=Postcards from Paraguay
TTITLE3=Marbletown
TTITLE4=Speedway At Nazareth
TTITLE5=Telegraph Road
TTITLE6=Brothers In Arms
TTITLE7=So Far Away
EXTD=
EXTT0=
EXTT1=
EXTT2=
EXTT3=
EXTT4=
EXTT5=
EXTT6=
EXTT7=
PLAYORDER=
